<?xml version="1.0" encoding="UTF-8" standalone="no"?>
<!-- Created with Inkscape (http://www.inkscape.org/) -->

<svg
   xmlns:dc="http://purl.org/dc/elements/1.1/"
   xmlns:cc="http://creativecommons.org/ns#"
   xmlns:rdf="http://www.w3.org/1999/02/22-rdf-syntax-ns#"
   xmlns:svg="http://www.w3.org/2000/svg"
   xmlns="http://www.w3.org/2000/svg"
   xmlns:sodipodi="http://sodipodi.sourceforge.net/DTD/sodipodi-0.dtd"
   xmlns:inkscape="http://www.inkscape.org/namespaces/inkscape"
   inkscape:export-ydpi="90.000000"
   inkscape:export-xdpi="90.000000"
   width="24"
   height="24"
   id="svg11300"
   sodipodi:version="0.32"
   inkscape:version="0.92.1 r15371"
   sodipodi:docname="activities.svg"
   inkscape:output_extension="org.inkscape.output.svg.inkscape"
   version="1.0"
   style="display:inline;enable-background:new">
  <sodipodi:namedview
     stroke="#ef2929"
     fill="#f57900"
     id="base"
     pagecolor="#bebebe"
     bordercolor="#525252"
     borderopacity="1"
     inkscape:pageopacity="1"
     inkscape:pageshadow="2"
     inkscape:zoom="16"
     inkscape:cx="15.596047"
     inkscape:cy="-0.026906581"
     inkscape:current-layer="layer1"
     showgrid="true"
     inkscape:grid-bbox="true"
     inkscape:document-units="px"
     inkscape:showpageshadow="true"
     inkscape:window-width="2193"
     inkscape:window-height="1403"
     inkscape:window-x="1219"
     inkscape:window-y="458"
     width="400px"
     height="300px"
     inkscape:snap-nodes="true"
     inkscape:snap-bbox="true"
     gridtolerance="10000"
     inkscape:object-nodes="true"
     inkscape:snap-grids="true"
     showguides="false"
     inkscape:guide-bbox="true"
     inkscape:window-maximized="0"
     inkscape:bbox-nodes="true"
     inkscape:bbox-paths="false"
     inkscape:snap-bbox-edge-midpoints="false"
     inkscape:snap-bbox-midpoints="false"
     objecttolerance="10000"
     guidetolerance="10000"
     borderlayer="true"
     showborder="true"
     guidecolor="#ff0b00"
     guideopacity="1"
     guidehicolor="#001aff"
     guidehiopacity="0.49803922">
    <inkscape:grid
       type="xygrid"
       id="grid3123"
       empspacing="4"
       visible="true"
       enabled="true"
       snapvisiblegridlinesonly="true" />
    <sodipodi:guide
       position="12,12"
       orientation="1,0"
       id="guide4135"
       inkscape:locked="false" />
  </sodipodi:namedview>
  <defs
     id="defs3" />
  <metadata
     id="metadata4">
    <rdf:RDF>
      <cc:Work
         rdf:about="">
        <dc:format>image/svg+xml</dc:format>
        <dc:type
           rdf:resource="http://purl.org/dc/dcmitype/StillImage" />
        <dc:creator>
          <cc:Agent>
            <dc:title />
          </cc:Agent>
        </dc:creator>
        <dc:source />
        <cc:license
           rdf:resource="" />
        <dc:title />
        <dc:subject>
          <rdf:Bag />
        </dc:subject>
        <dc:date />
        <dc:rights>
          <cc:Agent>
            <dc:title />
          </cc:Agent>
        </dc:rights>
        <dc:publisher>
          <cc:Agent>
            <dc:title />
          </cc:Agent>
        </dc:publisher>
        <dc:identifier />
        <dc:relation />
        <dc:language />
        <dc:coverage />
        <dc:description />
        <dc:contributor>
          <cc:Agent>
            <dc:title />
          </cc:Agent>
        </dc:contributor>
      </cc:Work>
      <cc:Work
         rdf:about="">
        <dc:format>image/svg+xml</dc:format>
        <dc:type
           rdf:resource="http://purl.org/dc/dcmitype/StillImage" />
      </cc:Work>
    </rdf:RDF>
  </metadata>
  <g
     style="display:inline"
     inkscape:groupmode="layer"
     inkscape:#155cc4="Base"
     id="layer1"
     transform="translate(0,-276)">
    <rect
       style="opacity:1;fill:#ffffff;fill-opacity:1;stroke:none;stroke-width:1;stroke-linecap:round;stroke-linejoin:miter;stroke-miterlimit:4;stroke-dasharray:none;stroke-dashoffset:0;stroke-opacity:1"
       id="rect4138"
       width="2"
       height="2"
       x="4.0000005"
       y="287.30487" />
    <rect
       style="display:inline;opacity:1;fill:#ffffff;fill-opacity:1;stroke:none;stroke-width:1;stroke-linecap:round;stroke-linejoin:miter;stroke-miterlimit:4;stroke-dasharray:none;stroke-dashoffset:0;stroke-opacity:1;enable-background:new"
       id="rect4138-6"
       width="2"
       height="2"
       x="10"
       y="287.30487" />
    <path
       id="path817"
       d="m 19.66246,293 c -0.287969,0.68817 -0.628831,1.32161 -1.023761,1.90399 -0.538327,0.79394 -0.979096,1.34349 -1.318784,1.64866 -0.526572,0.50092 -1.090758,0.75746 -1.694907,0.77205 -0.433717,0 -0.956763,-0.12767 -1.565614,-0.38663 -0.610848,-0.25776 -1.172212,-0.38542 -1.685504,-0.38542 -0.538326,0 -1.115676,0.12766 -1.733224,0.38542 -0.618489,0.25896 -1.1167347,0.39392 -1.4976777,0.4073 -0.5793473,0.0255 -1.1568146,-0.2383 -1.733224,-0.79272 -0.3678959,-0.33192 -0.8280598,-0.90093 -1.3793157,-1.70702 -0.5914544,-0.86081 -1.0777119,-1.859 -1.4586546,-2.99701 -0.4079765,-1.2292 -0.6124937,-2.41949 -0.6124937,-3.57185 0,-1.32003 0.2757455,-2.45852 0.8280595,-3.41258 0.4340703,-0.76634 1.0115374,-1.37084 1.7342826,-1.81462 0.722745,-0.44377 1.5036717,-0.66992 2.3446606,-0.68439 0.4601633,0 1.0636073,0.14724 1.813503,0.4366 0.747781,0.29035 1.227926,0.43758 1.438438,0.43758 0.157384,0 0.690774,-0.17216 1.594999,-0.51539 0.855093,-0.3183 1.576781,-0.4501 2.168,-0.39818 1.602051,0.13375 2.805647,0.787 3.606085,1.96392 -1.432796,0.89801 -2.141554,2.15578 -2.127449,3.7693 0.01293,1.2568 0.453699,2.30265 1.319959,3.13306 0.392579,0.38542 0.830998,0.6833 1.318783,0.89485 -0.105785,0.31733 -0.217446,0.62128 -0.336161,0.91308 z m -3.674257,-14.95586 c 0,0.98507 -0.347914,1.90483 -1.041392,2.75615 -0.836875,1.01206 -1.849118,1.59687 -2.946811,1.50458 -0.01399,-0.11817 -0.02209,-0.24255 -0.02209,-0.37325 0,-0.94567 0.397985,-1.95772 1.104745,-2.78522 0.352851,-0.41897 0.801613,-0.76734 1.345817,-1.04524 0.543029,-0.27376 1.056672,-0.42515 1.539756,-0.45107 0.0141,0.13169 0.01998,0.26338 0.01998,0.39404 z"
       inkscape:connector-curvature="0"
       style="fill:#ffffff;stroke-width:0.11954349" />
  </g>
</svg>
