<?xml version="1.0" standalone="no"?>
<!DOCTYPE svg PUBLIC "-//W3C//DTD SVG 20010904//EN"
 "http://www.w3.org/TR/2001/REC-SVG-20010904/DTD/svg10.dtd">
<svg version="1.0" xmlns="http://www.w3.org/2000/svg"
 width="50.000000pt" height="50.000000pt" viewBox="0 0 50.000000 50.000000"
 preserveAspectRatio="xMidYMid meet">
<metadata>
Created by potrace 1.10, written by Peter Selinger 2001-2011
</metadata>
<g transform="translate(0.000000,50.000000) scale(0.050000,-0.050000)"
fill="#ffffff" stroke="none">
<path d="M609 970 c-36 -28 -35 -29 16 -7 74 31 85 14 46 -68 -61 -128 -181
-153 -136 -29 22 58 21 60 -6 25 -16 -21 -29 -59 -29 -85 0 -96 143 -32 193
87 42 102 -1 142 -84 77z"/>
<path d="M370 737 c114 -24 141 -25 282 -6 65 9 120 5 150 -10 47 -22 47 -22
8 9 -31 26 -64 30 -150 21 -138 -16 -167 -17 -290 -3 l-100 10 100 -21z"/>
<path d="M173 683 c-125 -130 -111 -403 28 -567 31 -37 29 -27 -9 44 -115 217
-110 428 12 531 33 27 51 49 41 49 -10 0 -42 -25 -72 -57z"/>
<path d="M827 614 c-82 -123 -72 -231 29 -321 l42 -38 -40 -80 c-23 -44 -65
-103 -95 -130 -47 -44 -48 -48 -8 -27 41 21 131 142 157 211 6 14 -17 53 -51
87 -77 77 -85 208 -19 292 24 30 39 58 35 62 -4 4 -27 -21 -50 -56z"/>
<path d="M407 25 c-13 -8 38 -15 113 -15 75 0 126 7 113 15 -30 19 -196 19
-226 0z"/>
</g>
</svg>
